<svg width="349" height="43" viewBox="0 0 349 43" fill="none" xmlns="http://www.w3.org/2000/svg">
<path d="M25 2.912V9.24H8.704V19.264H21.192V25.48H8.704V42H0.864V2.912H25ZM57.7193 25.816C57.7193 26.936 57.6446 27.944 57.4953 28.84H34.8153C35.002 31.08 35.786 32.8347 37.1673 34.104C38.5486 35.3733 40.2473 36.008 42.2633 36.008C45.1753 36.008 47.2473 34.7573 48.4793 32.256H56.9353C56.0393 35.2427 54.322 37.7067 51.7833 39.648C49.2446 41.552 46.1273 42.504 42.4313 42.504C39.4446 42.504 36.7566 41.8507 34.3673 40.544C32.0153 39.2 30.1673 37.3147 28.8233 34.888C27.5166 32.4613 26.8633 29.6613 26.8633 26.488C26.8633 23.2773 27.5166 20.4587 28.8233 18.032C30.13 15.6053 31.9593 13.7387 34.3113 12.432C36.6633 11.1253 39.37 10.472 42.4313 10.472C45.3806 10.472 48.0126 11.1067 50.3273 12.376C52.6793 13.6453 54.49 15.456 55.7593 17.808C57.066 20.1227 57.7193 22.792 57.7193 25.816ZM49.5993 23.576C49.562 21.56 48.834 19.9547 47.4153 18.76C45.9966 17.528 44.2606 16.912 42.2073 16.912C40.266 16.912 38.6233 17.5093 37.2793 18.704C35.9726 19.8613 35.17 21.4853 34.8713 23.576H49.5993ZM59.7458 26.376C59.7458 23.24 60.3618 20.4587 61.5938 18.032C62.8631 15.6053 64.5618 13.7387 66.6898 12.432C68.8551 11.1253 71.2631 10.472 73.9138 10.472C76.2285 10.472 78.2445 10.9387 79.9618 11.872C81.7165 12.8053 83.1165 13.9813 84.1618 15.4V10.976H92.0578V42H84.1618V37.464C83.1538 38.92 81.7538 40.1333 79.9618 41.104C78.2071 42.0373 76.1725 42.504 73.8578 42.504C71.2445 42.504 68.8551 41.832 66.6898 40.488C64.5618 39.144 62.8631 37.2587 61.5938 34.832C60.3618 32.368 59.7458 29.5493 59.7458 26.376ZM84.1618 26.488C84.1618 24.584 83.7885 22.96 83.0418 21.616C82.2951 20.2347 81.2871 19.1893 80.0178 18.48C78.7485 17.7333 77.3858 17.36 75.9298 17.36C74.4738 17.36 73.1298 17.7147 71.8978 18.424C70.6658 19.1333 69.6578 20.1787 68.8738 21.56C68.1271 22.904 67.7538 24.5093 67.7538 26.376C67.7538 28.2427 68.1271 29.8853 68.8738 31.304C69.6578 32.6853 70.6658 33.7493 71.8978 34.496C73.1671 35.2427 74.5111 35.616 75.9298 35.616C77.3858 35.616 78.7485 35.2613 80.0178 34.552C81.2871 33.8053 82.2951 32.76 83.0418 31.416C83.7885 30.0347 84.1618 28.392 84.1618 26.488ZM107.163 17.416V32.424C107.163 33.4693 107.406 34.2347 107.891 34.72C108.414 35.168 109.272 35.392 110.467 35.392H114.107V42H109.179C102.571 42 99.2669 38.7893 99.2669 32.368V17.416H95.5709V10.976H99.2669V3.304H107.163V10.976H114.107V17.416H107.163ZM147.354 10.976V42H139.458V38.08C138.45 39.424 137.125 40.488 135.482 41.272C133.877 42.0187 132.122 42.392 130.218 42.392C127.791 42.392 125.645 41.888 123.778 40.88C121.911 39.8347 120.437 38.3227 119.354 36.344C118.309 34.328 117.786 31.9387 117.786 29.176V10.976H125.626V28.056C125.626 30.52 126.242 32.424 127.474 33.768C128.706 35.0747 130.386 35.728 132.514 35.728C134.679 35.728 136.378 35.0747 137.61 33.768C138.842 32.424 139.458 30.52 139.458 28.056V10.976H147.354ZM161.249 15.792C162.257 14.1493 163.564 12.8613 165.169 11.928C166.812 10.9947 168.679 10.528 170.769 10.528V18.76H168.697C166.233 18.76 164.367 19.3387 163.097 20.496C161.865 21.6533 161.249 23.6693 161.249 26.544V42H153.409V10.976H161.249V15.792ZM203.21 25.816C203.21 26.936 203.135 27.944 202.986 28.84H180.306C180.493 31.08 181.277 32.8347 182.658 34.104C184.039 35.3733 185.738 36.008 187.754 36.008C190.666 36.008 192.738 34.7573 193.97 32.256H202.426C201.53 35.2427 199.813 37.7067 197.274 39.648C194.735 41.552 191.618 42.504 187.922 42.504C184.935 42.504 182.247 41.8507 179.858 40.544C177.506 39.2 175.658 37.3147 174.314 34.888C173.007 32.4613 172.354 29.6613 172.354 26.488C172.354 23.2773 173.007 20.4587 174.314 18.032C175.621 15.6053 177.45 13.7387 179.802 12.432C182.154 11.1253 184.861 10.472 187.922 10.472C190.871 10.472 193.503 11.1067 195.818 12.376C198.17 13.6453 199.981 15.456 201.25 17.808C202.557 20.1227 203.21 22.792 203.21 25.816ZM195.09 23.576C195.053 21.56 194.325 19.9547 192.906 18.76C191.487 17.528 189.751 16.912 187.698 16.912C185.757 16.912 184.114 17.5093 182.77 18.704C181.463 19.8613 180.661 21.4853 180.362 23.576H195.09ZM233.852 2.912V9.24H223.436V42H215.596V9.24H205.18V2.912H233.852ZM266.733 25.816C266.733 26.936 266.658 27.944 266.509 28.84H243.829C244.015 31.08 244.799 32.8347 246.181 34.104C247.562 35.3733 249.261 36.008 251.277 36.008C254.189 36.008 256.261 34.7573 257.493 32.256H265.949C265.053 35.2427 263.335 37.7067 260.797 39.648C258.258 41.552 255.141 42.504 251.445 42.504C248.458 42.504 245.77 41.8507 243.381 40.544C241.029 39.2 239.181 37.3147 237.837 34.888C236.53 32.4613 235.877 29.6613 235.877 26.488C235.877 23.2773 236.53 20.4587 237.837 18.032C239.143 15.6053 240.973 13.7387 243.325 12.432C245.677 11.1253 248.383 10.472 251.445 10.472C254.394 10.472 257.026 11.1067 259.341 12.376C261.693 13.6453 263.503 15.456 264.773 17.808C266.079 20.1227 266.733 22.792 266.733 25.816ZM258.613 23.576C258.575 21.56 257.847 19.9547 256.429 18.76C255.01 17.528 253.274 16.912 251.221 16.912C249.279 16.912 247.637 17.5093 246.293 18.704C244.986 19.8613 244.183 21.4853 243.885 23.576H258.613ZM278.615 0.559999V42H270.775V0.559999H278.615ZM292.521 0.559999V42H284.681V0.559999H292.521ZM327.427 25.816C327.427 26.936 327.352 27.944 327.203 28.84H304.523C304.71 31.08 305.494 32.8347 306.875 34.104C308.256 35.3733 309.955 36.008 311.971 36.008C314.883 36.008 316.955 34.7573 318.187 32.256H326.643C325.747 35.2427 324.03 37.7067 321.491 39.648C318.952 41.552 315.835 42.504 312.139 42.504C309.152 42.504 306.464 41.8507 304.075 40.544C301.723 39.2 299.875 37.3147 298.531 34.888C297.224 32.4613 296.571 29.6613 296.571 26.488C296.571 23.2773 297.224 20.4587 298.531 18.032C299.838 15.6053 301.667 13.7387 304.019 12.432C306.371 11.1253 309.078 10.472 312.139 10.472C315.088 10.472 317.72 11.1067 320.035 12.376C322.387 13.6453 324.198 15.456 325.467 17.808C326.774 20.1227 327.427 22.792 327.427 25.816ZM319.307 23.576C319.27 21.56 318.542 19.9547 317.123 18.76C315.704 17.528 313.968 16.912 311.915 16.912C309.974 16.912 308.331 17.5093 306.987 18.704C305.68 19.8613 304.878 21.4853 304.579 23.576H319.307ZM339.31 15.792C340.318 14.1493 341.624 12.8613 343.23 11.928C344.872 10.9947 346.739 10.528 348.83 10.528V18.76H346.758C344.294 18.76 342.427 19.3387 341.158 20.496C339.926 21.6533 339.31 23.6693 339.31 26.544V42H331.47V10.976H339.31V15.792Z" fill="white"/>
</svg>
